<svg xmlns="http://www.w3.org/2000/svg"><filter id="grayscale"></filter><g filter="url(#grayscale)"><svg xmlns="http://www.w3.org/2000/svg" viewBox="11.059996643066398 102.50015258789062 552.8800048828125 370"><svg xmlns="http://www.w3.org/2000/svg" viewBox="0 0.45604991912841797 92.5802001953125 95.3592300415039" fill="none" height="230" width="223.296875" y="172.50015258789062" x="175.852" preserveAspectRatio="xMinYMin" style="overflow: visible;"><path fill-rule="evenodd" clip-rule="evenodd" d="M20.4647 16.1857C17.5127 19.7667 15.123 23.8966 13.4902 28.5101L13.7702 28.6201C16.0104 23.3012 19.1739 18.7268 22.9783 14.9756C34.3485 9.93984 47.8273 9.72074 59.0401 15.5499C65.1101 18.5399 70.4401 23.0999 74.4901 28.6499L74.7401 28.4799C71.0601 22.6099 65.8401 17.6799 59.7401 14.2199C50.5482 8.99459 39.5877 7.51123 29.5762 9.68388C43.1613 0.901756 61.4013 0.338204 76.0302 10.3001C82.8802 14.7401 88.4602 21.1001 92.3002 28.6201L92.5802 28.5101C90.2702 20.2901 84.8302 12.8901 77.7202 7.82006C61.5786 -3.49706 40.1536 -1.15076 26.0012 10.629C16.9491 13.4655 8.99892 19.4487 4.33008 28.5099L4.34009 28.5199L4.59009 28.6899C9.11009 23.4699 14.4101 19.1899 20.3801 16.2299C20.4083 16.2151 20.4365 16.2004 20.4647 16.1857ZM14.87 88.4499C31.0229 99.772 52.4519 97.4205 66.601 85.634C75.6439 82.7947 83.5848 76.8138 88.2498 67.7601L88.2398 67.7501L87.9898 67.5801C83.4698 72.8001 78.1698 77.0801 72.1998 80.0401L72.1367 80.0731C75.0901 76.4868 77.4795 72.3504 79.11 67.7299L79.1 67.7199L78.82 67.6099C76.5788 72.9478 73.4086 77.5368 69.594 81.2977C58.2254 86.3302 44.7502 86.548 33.5398 80.7201C27.4698 77.7301 22.1398 73.1701 18.0898 67.6201L17.8398 67.7901C21.5198 73.6601 26.7398 78.5901 32.8398 82.0501C42.0299 87.2744 52.9879 88.7582 62.9978 86.5874C49.4178 95.3645 31.1858 95.925 16.56 85.9699C9.71 81.5399 4.12 75.1799 0.279999 67.6499L0 67.7599C2.31 75.9799 7.75001 83.3799 14.87 88.4499Z" fill="url(#paint0_linear_24575_3446)" style="fill: url(#paint0_linear_24575_3446);"></path><linearGradient id="paint0_linear_24575_3446" x1="19.5" y1="96" x2="76" y2="7.5" gradientUnits="userSpaceOnUse" style=""><stop stop-color="#A17D5E"></stop><stop offset="1" stop-color="#EAD6B9"></stop></linearGradient></svg><svg xmlns="http://www.w3.org/2000/svg" y="322.0001525878906" viewBox="0.8899999856948853 -0.04000000283122063 251.69000244140625 11.640000343322754" x="161.65499877929688" height="11.640000343322754" width="251.69000244140625" style="overflow: visible;"><g fill="#ffffff" fill-opacity="1" style=""><path d="M10.05 5.94L10.05 10.32Q9.82 10.52 9.42 10.70Q9.01 10.89 8.53 11.04Q8.04 11.19 7.52 11.28Q7.00 11.37 6.55 11.37L6.55 11.37Q5.25 11.37 4.21 10.96Q3.17 10.56 2.42 9.84Q1.68 9.12 1.28 8.14Q0.89 7.17 0.89 6.03L0.89 6.03Q0.89 4.68 1.33 3.61Q1.77 2.54 2.54 1.79Q3.31 1.05 4.32 0.67Q5.33 0.29 6.45 0.29L6.45 0.29Q7.39 0.29 8.21 0.51Q9.01 0.74 9.63 1.08L9.63 1.08L9.13 2.42Q8.83 2.24 8.39 2.09Q7.95 1.94 7.48 1.84Q7.02 1.74 6.61 1.74L6.61 1.74Q5.65 1.74 4.88 2.03Q4.09 2.33 3.54 2.87Q2.98 3.42 2.69 4.19Q2.38 4.96 2.38 5.92L2.38 5.92Q2.38 6.81 2.69 7.54Q2.98 8.28 3.54 8.81Q4.09 9.35 4.87 9.64Q5.64 9.93 6.57 9.93L6.57 9.93Q7.13 9.93 7.67 9.82Q8.21 9.71 8.59 9.50L8.59 9.50L8.59 7.33L6.43 7.33L6.43 5.94L10.05 5.94ZM14.32 11.25L14.32 0.41L15.78 0.41L15.78 9.86L21.28 9.86L21.28 11.25L14.32 11.25ZM24.29 5.83L24.29 5.83Q24.29 4.71 24.71 3.71Q25.14 2.71 25.90 1.94Q26.67 1.17 27.67 0.73Q28.66 0.29 29.82 0.29L29.82 0.29Q30.96 0.29 31.96 0.73Q32.95 1.17 33.73 1.94Q34.50 2.71 34.94 3.71Q35.37 4.71 35.37 5.83L35.37 5.83Q35.37 6.99 34.94 8.00Q34.50 9 33.73 9.76Q32.97 10.52 31.96 10.94Q30.96 11.37 29.82 11.37L29.82 11.37Q28.66 11.37 27.67 10.95Q26.67 10.53 25.90 9.78Q25.14 9.03 24.71 8.03Q24.29 7.02 24.29 5.83ZM25.78 5.85L25.78 5.85Q25.78 6.71 26.10 7.45Q26.41 8.19 26.97 8.76Q27.52 9.33 28.26 9.65Q28.99 9.97 29.85 9.97L29.85 9.97Q30.69 9.97 31.42 9.65Q32.16 9.33 32.70 8.76Q33.24 8.19 33.55 7.45Q33.87 6.71 33.87 5.83L33.87 5.83Q33.87 4.98 33.55 4.22Q33.24 3.46 32.69 2.89Q32.13 2.33 31.39 2.00Q30.66 1.68 29.82 1.68L29.82 1.68Q28.96 1.68 28.23 2.01Q27.49 2.34 26.94 2.91Q26.38 3.48 26.08 4.24Q25.78 5.00 25.78 5.85ZM39.31 0.41L42.10 0.41Q43.74 0.41 44.68 1.07Q45.61 1.74 45.61 3.15L45.61 3.15Q45.61 4.00 45.22 4.64Q44.83 5.27 44.14 5.63Q43.44 5.99 42.49 6.03L42.49 6.03L42.28 5.28Q43.38 5.31 44.25 5.67Q45.12 6.03 45.63 6.67Q46.14 7.32 46.14 8.21L46.14 8.21Q46.14 9.02 45.84 9.59Q45.54 10.17 45.03 10.54Q44.52 10.90 43.87 11.08Q43.23 11.25 42.54 11.25L42.54 11.25L39.31 11.25L39.31 0.41ZM40.77 5.16L42.40 5.16Q43.30 5.16 43.71 4.66Q44.11 4.16 44.11 3.44L44.11 3.44Q44.11 2.58 43.59 2.19Q43.06 1.80 42.18 1.80L42.18 1.80L40.77 1.80L40.77 5.16ZM40.77 9.90L42.46 9.90Q43.06 9.90 43.57 9.72Q44.07 9.54 44.36 9.16Q44.65 8.79 44.65 8.22L44.65 8.22Q44.65 7.59 44.32 7.23Q43.98 6.87 43.45 6.71Q42.93 6.56 42.37 6.56L42.37 6.56L40.77 6.56L40.77 9.90ZM50.19 11.25L48.76 11.25L53.50-0.04L53.59-0.04L58.32 11.25L56.65 11.25L53.11 2.24L54.15 1.56L50.19 11.25ZM51.12 8.40L51.54 7.14L55.57 7.14L56.05 8.40L51.12 8.40ZM61.86 11.25L61.86 0.41L63.31 0.41L63.31 9.86L68.82 9.86L68.82 11.25L61.86 11.25ZM85.17 0.41L87.96 0.41Q89.59 0.41 90.53 1.07Q91.47 1.74 91.47 3.15L91.47 3.15Q91.47 4.00 91.08 4.64Q90.69 5.27 89.99 5.63Q89.29 5.99 88.35 6.03L88.35 6.03L88.14 5.28Q89.23 5.31 90.10 5.67Q90.97 6.03 91.48 6.67Q91.99 7.32 91.99 8.21L91.99 8.21Q91.99 9.02 91.69 9.59Q91.39 10.17 90.88 10.54Q90.37 10.90 89.73 11.08Q89.08 11.25 88.39 11.25L88.39 11.25L85.17 11.25L85.17 0.41ZM86.62 5.16L88.26 5.16Q89.16 5.16 89.56 4.66Q89.97 4.16 89.97 3.44L89.97 3.44Q89.97 2.58 89.44 2.19Q88.92 1.80 88.03 1.80L88.03 1.80L86.62 1.80L86.62 5.16ZM86.62 9.90L88.32 9.90Q88.92 9.90 89.42 9.72Q89.92 9.54 90.22 9.16Q90.51 8.79 90.51 8.22L90.51 8.22Q90.51 7.59 90.17 7.23Q89.83 6.87 89.31 6.71Q88.78 6.56 88.23 6.56L88.23 6.56L86.62 6.56L86.62 9.90ZM97.24 0.41L97.24 7.41Q97.24 8.14 97.60 8.72Q97.95 9.30 98.53 9.63Q99.12 9.96 99.85 9.96L99.85 9.96Q100.62 9.96 101.22 9.63Q101.82 9.30 102.16 8.72Q102.51 8.14 102.51 7.41L102.51 7.41L102.51 0.41L103.93 0.41L103.93 7.46Q103.93 8.64 103.39 9.53Q102.84 10.41 101.92 10.89Q100.99 11.37 99.85 11.37L99.85 11.37L99.85 11.37Q98.71 11.37 97.80 10.89Q96.88 10.41 96.34 9.53Q95.80 8.64 95.80 7.46L95.80 7.46L95.80 0.41L97.24 0.41ZM114.57 1.21L114.01 2.34Q113.46 2.05 112.80 1.85Q112.14 1.63 111.51 1.63L111.51 1.63Q110.64 1.63 110.12 2.04Q109.60 2.45 109.60 3.12L109.60 3.12Q109.60 3.63 109.93 3.98Q110.26 4.33 110.80 4.59Q111.34 4.85 111.93 5.07L111.93 5.07Q112.44 5.27 112.93 5.50Q113.43 5.75 113.83 6.11Q114.22 6.46 114.46 6.99Q114.69 7.52 114.69 8.29L114.69 8.29Q114.69 9.15 114.26 9.86Q113.83 10.56 113.04 10.96Q112.24 11.37 111.15 11.37L111.15 11.37Q110.43 11.37 109.78 11.21Q109.12 11.04 108.57 10.78Q108.01 10.52 107.58 10.23L107.58 10.23L108.22 9.09Q108.58 9.35 109.05 9.58Q109.51 9.81 110.02 9.95Q110.53 10.10 111.01 10.10L111.01 10.10Q111.52 10.10 112.03 9.91Q112.53 9.72 112.86 9.33Q113.19 8.94 113.19 8.29L113.19 8.29Q113.19 7.74 112.90 7.37Q112.60 7.00 112.12 6.74Q111.64 6.48 111.10 6.27L111.10 6.27Q110.59 6.08 110.07 5.84Q109.54 5.61 109.09 5.27Q108.64 4.94 108.37 4.44Q108.10 3.95 108.10 3.24L108.10 3.24Q108.10 2.38 108.52 1.75Q108.93 1.11 109.65 0.74Q110.37 0.38 111.30 0.35L111.30 0.35Q112.35 0.35 113.15 0.60Q113.95 0.86 114.57 1.21L114.57 1.21ZM118.63 11.25L118.63 0.41L120.09 0.41L120.09 11.25L118.63 11.25ZM134.14 11.60L134.10 11.60L125.71 3.09L126.13 3.20L126.16 11.25L124.71 11.25L124.71 0.08L124.78 0.08L133.08 8.61L132.73 8.54L132.70 0.41L134.14 0.41L134.14 11.60ZM138.76 11.25L138.76 0.41L145.81 0.41L145.81 1.80L140.22 1.80L140.22 5.10L145.21 5.10L145.21 6.50L140.22 6.50L140.22 9.86L146.02 9.86L146.02 11.25L138.76 11.25ZM156.21 1.21L155.65 2.34Q155.10 2.05 154.44 1.85Q153.78 1.63 153.15 1.63L153.15 1.63Q152.28 1.63 151.76 2.04Q151.24 2.45 151.24 3.12L151.24 3.12Q151.24 3.63 151.57 3.98Q151.90 4.33 152.44 4.59Q152.98 4.85 153.57 5.07L153.57 5.07Q154.08 5.27 154.57 5.50Q155.07 5.75 155.47 6.11Q155.86 6.46 156.10 6.99Q156.33 7.52 156.33 8.29L156.33 8.29Q156.33 9.15 155.90 9.86Q155.47 10.56 154.68 10.96Q153.88 11.37 152.79 11.37L152.79 11.37Q152.07 11.37 151.42 11.21Q150.76 11.04 150.21 10.78Q149.65 10.52 149.22 10.23L149.22 10.23L149.86 9.09Q150.22 9.35 150.69 9.58Q151.15 9.81 151.66 9.95Q152.17 10.10 152.65 10.10L152.65 10.10Q153.16 10.10 153.67 9.91Q154.17 9.72 154.50 9.33Q154.83 8.94 154.83 8.29L154.83 8.29Q154.83 7.74 154.54 7.37Q154.24 7.00 153.76 6.74Q153.28 6.48 152.74 6.27L152.74 6.27Q152.23 6.08 151.71 5.84Q151.18 5.61 150.73 5.27Q150.28 4.94 150.01 4.44Q149.74 3.95 149.74 3.24L149.74 3.24Q149.74 2.38 150.16 1.75Q150.57 1.11 151.29 0.74Q152.01 0.38 152.94 0.35L152.94 0.35Q153.99 0.35 154.79 0.60Q155.59 0.86 156.21 1.21L156.21 1.21ZM166.44 1.21L165.88 2.34Q165.33 2.05 164.67 1.85Q164.01 1.63 163.38 1.63L163.38 1.63Q162.51 1.63 161.99 2.04Q161.47 2.45 161.47 3.12L161.47 3.12Q161.47 3.63 161.80 3.98Q162.13 4.33 162.67 4.59Q163.21 4.85 163.80 5.07L163.80 5.07Q164.31 5.27 164.80 5.50Q165.30 5.75 165.70 6.11Q166.09 6.46 166.33 6.99Q166.56 7.52 166.56 8.29L166.56 8.29Q166.56 9.15 166.13 9.86Q165.70 10.56 164.91 10.96Q164.11 11.37 163.02 11.37L163.02 11.37Q162.30 11.37 161.65 11.21Q160.99 11.04 160.44 10.78Q159.88 10.52 159.45 10.23L159.45 10.23L160.09 9.09Q160.45 9.35 160.92 9.58Q161.38 9.81 161.89 9.95Q162.40 10.10 162.88 10.10L162.88 10.10Q163.39 10.10 163.90 9.91Q164.40 9.72 164.73 9.33Q165.06 8.94 165.06 8.29L165.06 8.29Q165.06 7.74 164.77 7.37Q164.47 7.00 163.99 6.74Q163.51 6.48 162.97 6.27L162.97 6.27Q162.46 6.08 161.94 5.84Q161.41 5.61 160.96 5.27Q160.51 4.94 160.24 4.44Q159.97 3.95 159.97 3.24L159.97 3.24Q159.97 2.38 160.39 1.75Q160.80 1.11 161.52 0.74Q162.24 0.38 163.17 0.35L163.17 0.35Q164.22 0.35 165.02 0.60Q165.82 0.86 166.44 1.21L166.44 1.21ZM176.74 0.41L179.64 0.41Q180.82 0.41 181.66 0.80Q182.50 1.20 182.96 1.95Q183.42 2.70 183.42 3.77L183.42 3.77Q183.42 4.41 183.22 5.03Q183.03 5.66 182.60 6.16Q182.17 6.66 181.48 6.96Q180.79 7.26 179.80 7.26L179.80 7.26L178.20 7.26L178.20 11.25L176.74 11.25L176.74 0.41ZM178.20 5.87L179.79 5.87Q180.43 5.87 180.85 5.66Q181.27 5.45 181.51 5.12Q181.75 4.80 181.86 4.44Q181.96 4.08 181.96 3.79L181.96 3.79Q181.96 3.46 181.86 3.11Q181.75 2.76 181.51 2.47Q181.26 2.18 180.86 1.99Q180.46 1.80 179.88 1.80L179.88 1.80L178.20 1.80L178.20 5.87ZM186.48 11.25L185.05 11.25L189.79-0.04L189.88-0.04L194.61 11.25L192.94 11.25L189.41 2.24L190.44 1.56L186.48 11.25ZM187.41 8.40L187.83 7.14L191.86 7.14L192.34 8.40L187.41 8.40ZM198.15 0.41L201.03 0.41Q201.85 0.41 202.55 0.62Q203.25 0.84 203.77 1.27Q204.28 1.70 204.58 2.32Q204.87 2.94 204.87 3.77L204.87 3.77Q204.87 4.41 204.68 5.03Q204.49 5.64 204.06 6.14Q203.62 6.65 202.93 6.95Q202.23 7.26 201.21 7.26L201.21 7.26L199.60 7.26L199.60 11.25L198.15 11.25L198.15 0.41ZM199.60 5.87L201.18 5.87Q201.82 5.87 202.25 5.67Q202.68 5.48 202.92 5.17Q203.16 4.86 203.26 4.50Q203.37 4.14 203.37 3.83L203.37 3.83Q203.37 3.50 203.26 3.14Q203.14 2.79 202.90 2.49Q202.65 2.19 202.25 2.00Q201.85 1.80 201.28 1.80L201.28 1.80L199.60 1.80L199.60 5.87ZM201.24 6.74L202.96 6.69L205.80 11.25L204.12 11.25L201.24 6.74ZM208.59 1.80L208.59 0.41L215.79 0.41L215.79 1.80L212.88 1.80L212.88 11.25L211.42 11.25L211.42 1.80L208.59 1.80ZM229.03 11.60L228.99 11.60L220.60 3.09L221.02 3.20L221.05 11.25L219.60 11.25L219.60 0.08L219.67 0.08L227.97 8.61L227.62 8.54L227.59 0.41L229.03 0.41L229.03 11.60ZM233.65 11.25L233.65 0.41L240.70 0.41L240.70 1.80L235.11 1.80L235.11 5.10L240.10 5.10L240.10 6.50L235.11 6.50L235.11 9.86L240.91 9.86L240.91 11.25L233.65 11.25ZM244.93 0.41L247.81 0.41Q248.64 0.41 249.34 0.62Q250.03 0.84 250.55 1.27Q251.07 1.70 251.36 2.32Q251.65 2.94 251.65 3.77L251.65 3.77Q251.65 4.41 251.47 5.03Q251.28 5.64 250.84 6.14Q250.41 6.65 249.71 6.95Q249.01 7.26 247.99 7.26L247.99 7.26L246.39 7.26L246.39 11.25L244.93 11.25L244.93 0.41ZM246.39 5.87L247.96 5.87Q248.61 5.87 249.04 5.67Q249.46 5.48 249.70 5.17Q249.94 4.86 250.05 4.50Q250.15 4.14 250.15 3.83L250.15 3.83Q250.15 3.50 250.04 3.14Q249.93 2.79 249.68 2.49Q249.43 2.19 249.04 2.00Q248.64 1.80 248.07 1.80L248.07 1.80L246.39 1.80L246.39 5.87ZM248.02 6.74L249.75 6.69L252.58 11.25L250.90 11.25L248.02 6.74Z" transform="translate(0, 0)"></path></g></svg><svg xmlns="http://www.w3.org/2000/svg" y="265.1401525878906" viewBox="2.180000066757202 16.479999542236328 412.8800048828125 49.560001373291016" x="81.0599966430664" height="49.560001373291016" width="412.8800048828125" style="overflow: visible;"><g fill="#ffffff" fill-opacity="1" style=""><path d="M2.18 20.49L2.18 19.45Q3.28 19.50 5.04 19.55Q6.81 19.60 8.53 19.60L8.53 19.60Q10.97 19.60 13.21 19.55Q15.44 19.50 16.38 19.50L16.38 19.50Q22.67 19.50 25.79 22.36Q28.91 25.22 28.91 29.74L28.91 29.74Q28.91 31.62 28.29 33.67Q27.66 35.72 26.13 37.47Q24.60 39.21 21.94 40.30Q19.29 41.39 15.24 41.39L15.24 41.39L10.24 41.39L10.24 40.35L14.72 40.35Q18.41 40.35 20.36 38.95Q22.31 37.54 23.01 35.26Q23.71 32.97 23.71 30.32L23.71 30.32Q23.71 25.38 21.76 22.93Q19.81 20.49 15.08 20.49L15.08 20.49Q12.69 20.49 11.96 21.37Q11.23 22.26 11.23 24.96L11.23 24.96L11.23 50.75Q11.23 52.62 11.62 53.56Q12.01 54.50 13.16 54.81Q14.30 55.12 16.48 55.22L16.48 55.22L16.48 56.26Q15.13 56.16 13.05 56.13Q10.97 56.11 8.84 56.11L8.84 56.11Q6.81 56.11 5.04 56.13Q3.28 56.16 2.18 56.26L2.18 56.26L2.18 55.22Q3.95 55.12 4.86 54.81Q5.77 54.50 6.08 53.56Q6.40 52.62 6.40 50.75L6.40 50.75L6.40 24.96Q6.40 23.04 6.08 22.13Q5.77 21.22 4.86 20.88Q3.95 20.54 2.18 20.49L2.18 20.49ZM48.10 28.76L48.10 28.76Q49.50 28.76 50.57 29.33Q51.64 29.90 52.23 30.81Q52.83 31.72 52.83 32.86L52.83 32.86Q52.83 34.16 52.03 35.15Q51.22 36.14 49.87 36.14L49.87 36.14Q48.78 36.14 47.94 35.44Q47.11 34.74 47.11 33.44L47.11 33.44Q47.11 32.45 47.66 31.75Q48.20 31.04 48.88 30.63L48.88 30.63Q48.52 30.11 47.79 30.11L47.79 30.11Q46.18 30.11 44.82 31.07Q43.47 32.03 42.54 33.54Q41.60 35.05 41.08 36.74Q40.56 38.43 40.56 39.88L40.56 39.88L40.56 50.91Q40.56 53.46 42.04 54.31Q43.52 55.17 46.07 55.17L46.07 55.17L46.07 56.26Q44.88 56.21 42.69 56.13Q40.51 56.06 38.06 56.06L38.06 56.06Q36.30 56.06 34.55 56.13Q32.81 56.21 31.93 56.26L31.93 56.26L31.93 55.17Q34.06 55.17 34.97 54.39Q35.88 53.61 35.88 51.43L35.88 51.43L35.88 35.15Q35.88 32.81 35.05 31.69Q34.22 30.58 31.93 30.58L31.93 30.58L31.93 29.48Q33.59 29.64 35.15 29.64L35.15 29.64Q36.66 29.64 38.04 29.46Q39.42 29.28 40.56 28.91L40.56 28.91L40.56 35.41Q41.13 33.90 42.20 32.37Q43.26 30.84 44.77 29.80Q46.28 28.76 48.10 28.76ZM67.81 28.76L67.81 28.76Q71.14 28.76 73.79 30.21Q76.44 31.67 78.03 34.79Q79.61 37.91 79.61 42.90L79.61 42.90Q79.61 47.89 78.03 50.99Q76.44 54.08 73.79 55.54Q71.14 56.99 67.81 56.99L67.81 56.99Q64.53 56.99 61.85 55.54Q59.18 54.08 57.59 50.99Q56.00 47.89 56.00 42.90L56.00 42.90Q56.00 37.91 57.59 34.79Q59.18 31.67 61.85 30.21Q64.53 28.76 67.81 28.76ZM67.81 29.80L67.81 29.80Q64.84 29.80 62.95 32.86Q61.05 35.93 61.05 42.90L61.05 42.90Q61.05 49.87 62.95 52.91Q64.84 55.95 67.81 55.95L67.81 55.95Q70.77 55.95 72.67 52.91Q74.57 49.87 74.57 42.90L74.57 42.90Q74.57 35.93 72.67 32.86Q70.77 29.80 67.81 29.80ZM93.13 66.04L93.13 66.04Q90.38 66.04 87.93 65.47Q85.49 64.90 84.01 63.67Q82.52 62.45 82.52 60.58L82.52 60.58Q82.52 58.76 83.98 57.46Q85.44 56.16 87.93 55.48L87.93 55.48L88.24 56.32Q87.10 56.68 86.42 57.77Q85.75 58.86 85.75 60.22L85.75 60.22Q85.75 62.61 87.96 63.88Q90.17 65.16 93.70 65.16L93.70 65.16Q96.04 65.16 98.28 64.56Q100.52 63.96 101.97 62.56Q103.43 61.15 103.43 58.86L103.43 58.86Q103.43 57.15 102.21 56.03Q100.98 54.91 97.40 54.91L97.40 54.91L93.55 54.91Q91.88 54.91 90.32 54.65Q88.76 54.39 87.78 53.56Q86.79 52.73 86.79 51.01L86.79 51.01Q86.79 49.24 88.24 47.61Q89.70 45.97 93.60 44.25L93.60 44.25L94.22 44.72Q92.46 45.66 91.16 46.62Q89.86 47.58 89.86 48.88L89.86 48.88Q89.86 50.54 92.35 50.54L92.35 50.54L98.85 50.54Q101.04 50.54 102.88 51.17Q104.73 51.79 105.87 53.14Q107.02 54.50 107.02 56.68L107.02 56.68Q107.02 59.12 105.46 61.26Q103.90 63.39 100.80 64.71Q97.71 66.04 93.13 66.04ZM93.39 45.19L93.39 45.19Q90.84 45.19 88.76 44.33Q86.68 43.47 85.49 41.65Q84.29 39.83 84.29 36.97L84.29 36.97Q84.29 34.11 85.49 32.29Q86.68 30.47 88.76 29.61Q90.84 28.76 93.39 28.76L93.39 28.76Q95.99 28.76 98.05 29.61Q100.10 30.47 101.30 32.29Q102.49 34.11 102.49 36.97L102.49 36.97Q102.49 39.83 101.30 41.65Q100.10 43.47 98.05 44.33Q95.99 45.19 93.39 45.19ZM93.39 44.25L93.39 44.25Q95.37 44.25 96.49 42.69Q97.60 41.13 97.60 36.97L97.60 36.97Q97.60 32.81 96.49 31.25Q95.37 29.69 93.39 29.69L93.39 29.69Q91.47 29.69 90.32 31.25Q89.18 32.81 89.18 36.97L89.18 36.97Q89.18 41.13 90.32 42.69Q91.47 44.25 93.39 44.25ZM100.88 33.07L100.88 33.07L99.94 32.71Q100.67 30.94 102.44 29.59Q104.21 28.24 106.13 28.24L106.13 28.24Q107.48 28.24 108.32 28.99Q109.15 29.74 109.15 31.25L109.15 31.25Q109.15 32.86 108.29 33.51Q107.43 34.16 106.55 34.16L106.55 34.16Q105.77 34.16 105.09 33.62Q104.42 33.07 104.31 31.88Q104.21 30.68 105.04 28.81L105.04 28.81L105.72 28.96Q103.53 29.80 102.60 30.71Q101.66 31.62 100.88 33.07ZM127.19 28.76L127.19 28.76Q128.60 28.76 129.66 29.33Q130.73 29.90 131.33 30.81Q131.92 31.72 131.92 32.86L131.92 32.86Q131.92 34.16 131.12 35.15Q130.31 36.14 128.96 36.14L128.96 36.14Q127.87 36.14 127.04 35.44Q126.20 34.74 126.20 33.44L126.20 33.44Q126.20 32.45 126.75 31.75Q127.30 31.04 127.97 30.63L127.97 30.63Q127.61 30.11 126.88 30.11L126.88 30.11Q125.27 30.11 123.92 31.07Q122.56 32.03 121.63 33.54Q120.69 35.05 120.17 36.74Q119.65 38.43 119.65 39.88L119.65 39.88L119.65 50.91Q119.65 53.46 121.13 54.31Q122.62 55.17 125.16 55.17L125.16 55.17L125.16 56.26Q123.97 56.21 121.78 56.13Q119.60 56.06 117.16 56.06L117.16 56.06Q115.39 56.06 113.65 56.13Q111.90 56.21 111.02 56.26L111.02 56.26L111.02 55.17Q113.15 55.17 114.06 54.39Q114.97 53.61 114.97 51.43L114.97 51.43L114.97 35.15Q114.97 32.81 114.14 31.69Q113.31 30.58 111.02 30.58L111.02 30.58L111.02 29.48Q112.68 29.64 114.24 29.64L114.24 29.64Q115.75 29.64 117.13 29.46Q118.51 29.28 119.65 28.91L119.65 28.91L119.65 35.41Q120.22 33.90 121.29 32.37Q122.36 30.84 123.86 29.80Q125.37 28.76 127.19 28.76ZM146.80 28.76L146.80 28.76Q151.37 28.76 153.95 31.54Q156.52 34.32 156.52 40.20L156.52 40.20L138.16 40.20L138.11 39.21L151.53 39.21Q151.63 36.66 151.11 34.50Q150.59 32.34 149.47 31.04Q148.36 29.74 146.59 29.74L146.59 29.74Q144.20 29.74 142.35 32.14Q140.50 34.53 140.14 39.73L140.14 39.73L140.30 39.94Q140.19 40.72 140.14 41.65Q140.09 42.59 140.09 43.52L140.09 43.52Q140.09 47.06 141.23 49.61Q142.38 52.16 144.22 53.48Q146.07 54.81 148.04 54.81L148.04 54.81Q149.60 54.81 151.01 54.31Q152.41 53.82 153.61 52.68Q154.80 51.53 155.69 49.61L155.69 49.61L156.73 50.02Q156.16 51.74 154.86 53.35Q153.56 54.96 151.58 55.98Q149.60 56.99 147.00 56.99L147.00 56.99Q143.26 56.99 140.58 55.28Q137.90 53.56 136.47 50.52Q135.04 47.48 135.04 43.52L135.04 43.52Q135.04 38.95 136.50 35.65Q137.96 32.34 140.61 30.55Q143.26 28.76 146.80 28.76ZM169.78 28.76L169.78 28.76Q171.86 28.76 173.32 29.43Q174.77 30.11 175.45 30.68L175.45 30.68Q177.16 32.08 177.53 28.81L177.53 28.81L178.72 28.81Q178.62 30.26 178.57 32.27Q178.52 34.27 178.52 37.65L178.52 37.65L177.32 37.65Q177.01 35.72 176.25 33.90Q175.50 32.08 174.04 30.91Q172.59 29.74 170.25 29.74L170.25 29.74Q168.43 29.74 167.21 30.76Q165.98 31.77 165.98 33.75L165.98 33.75Q165.98 35.31 166.92 36.43Q167.86 37.54 169.36 38.51Q170.87 39.47 172.64 40.61L172.64 40.61Q174.62 41.86 176.23 43.16Q177.84 44.46 178.80 46.02Q179.76 47.58 179.76 49.71L179.76 49.71Q179.76 52.10 178.52 53.72Q177.27 55.33 175.27 56.16Q173.26 56.99 170.87 56.99L170.87 56.99Q169.73 56.99 168.71 56.81Q167.70 56.63 166.76 56.26L166.76 56.26Q166.24 56.00 165.70 55.64Q165.15 55.28 164.63 54.86L164.63 54.86Q164.11 54.44 163.70 54.89Q163.28 55.33 163.07 56.63L163.07 56.63L161.88 56.63Q161.98 54.96 162.03 52.57Q162.08 50.18 162.08 46.23L162.08 46.23L163.28 46.23Q163.64 49.14 164.32 51.32Q165.00 53.51 166.45 54.73Q167.91 55.95 170.51 55.95L170.51 55.95Q171.55 55.95 172.61 55.48Q173.68 55.02 174.41 53.92Q175.14 52.83 175.14 51.01L175.14 51.01Q175.14 48.72 173.47 47.27Q171.81 45.81 169.26 44.20L169.26 44.20Q167.39 43.00 165.75 41.81Q164.11 40.61 163.10 39.10Q162.08 37.60 162.08 35.46L162.08 35.46Q162.08 33.12 163.15 31.64Q164.22 30.16 165.98 29.46Q167.75 28.76 169.78 28.76ZM193.02 28.76L193.02 28.76Q195.10 28.76 196.56 29.43Q198.02 30.11 198.69 30.68L198.69 30.68Q200.41 32.08 200.77 28.81L200.77 28.81L201.97 28.81Q201.86 30.26 201.81 32.27Q201.76 34.27 201.76 37.65L201.76 37.65L200.56 37.65Q200.25 35.72 199.50 33.90Q198.74 32.08 197.29 30.91Q195.83 29.74 193.49 29.74L193.49 29.74Q191.67 29.74 190.45 30.76Q189.23 31.77 189.23 33.75L189.23 33.75Q189.23 35.31 190.16 36.43Q191.10 37.54 192.61 38.51Q194.12 39.47 195.88 40.61L195.88 40.61Q197.86 41.86 199.47 43.16Q201.08 44.46 202.05 46.02Q203.01 47.58 203.01 49.71L203.01 49.71Q203.01 52.10 201.76 53.72Q200.51 55.33 198.51 56.16Q196.51 56.99 194.12 56.99L194.12 56.99Q192.97 56.99 191.96 56.81Q190.94 56.63 190.01 56.26L190.01 56.26Q189.49 56.00 188.94 55.64Q188.40 55.28 187.88 54.86L187.88 54.86Q187.36 54.44 186.94 54.89Q186.52 55.33 186.32 56.63L186.32 56.63L185.12 56.63Q185.22 54.96 185.28 52.57Q185.33 50.18 185.33 46.23L185.33 46.23L186.52 46.23Q186.89 49.14 187.56 51.32Q188.24 53.51 189.70 54.73Q191.15 55.95 193.75 55.95L193.75 55.95Q194.79 55.95 195.86 55.48Q196.92 55.02 197.65 53.92Q198.38 52.83 198.38 51.01L198.38 51.01Q198.38 48.72 196.72 47.27Q195.05 45.81 192.50 44.20L192.50 44.20Q190.63 43.00 188.99 41.81Q187.36 40.61 186.34 39.10Q185.33 37.60 185.33 35.46L185.33 35.46Q185.33 33.12 186.39 31.64Q187.46 30.16 189.23 29.46Q191.00 28.76 193.02 28.76ZM212.89 16.48L212.89 16.48Q214.24 16.48 215.23 17.47Q216.22 18.46 216.22 19.81L216.22 19.81Q216.22 21.16 215.23 22.15Q214.24 23.14 212.89 23.14L212.89 23.14Q211.54 23.14 210.55 22.15Q209.56 21.16 209.56 19.81L209.56 19.81Q209.56 18.46 210.55 17.47Q211.54 16.48 212.89 16.48ZM215.59 28.91L215.59 28.91L215.59 51.43Q215.59 53.61 216.50 54.39Q217.41 55.17 219.54 55.17L219.54 55.17L219.54 56.26Q218.66 56.21 216.87 56.13Q215.07 56.06 213.25 56.06L213.25 56.06Q211.48 56.06 209.66 56.13Q207.84 56.21 206.96 56.26L206.96 56.26L206.96 55.17Q209.09 55.17 210.00 54.39Q210.91 53.61 210.91 51.43L210.91 51.43L210.91 35.15Q210.91 32.81 210.08 31.69Q209.25 30.58 206.96 30.58L206.96 30.58L206.96 29.48Q208.62 29.64 210.18 29.64L210.18 29.64Q211.69 29.64 213.07 29.46Q214.45 29.28 215.59 28.91ZM245.96 29.48L245.96 29.48L245.96 30.52Q244.97 30.63 244.14 31.41Q243.31 32.19 242.58 34.16L242.58 34.16L234.05 56.52Q233.84 56.52 233.64 56.52Q233.43 56.52 233.17 56.52L233.17 56.52L223.60 33.49Q222.77 31.46 221.96 31.02Q221.16 30.58 220.58 30.58L220.58 30.58L220.58 29.48Q221.62 29.54 222.74 29.61Q223.86 29.69 225.16 29.69L225.16 29.69Q226.77 29.69 228.57 29.64Q230.36 29.59 231.92 29.48L231.92 29.48L231.92 30.58Q230.62 30.58 229.61 30.76Q228.59 30.94 228.31 31.77Q228.02 32.60 228.80 34.63L228.80 34.63L235.30 50.70L234.99 50.96L240.92 35.41Q241.59 33.70 241.46 32.68Q241.33 31.67 240.42 31.15Q239.51 30.63 237.64 30.52L237.64 30.52L237.64 29.48Q238.58 29.54 239.25 29.56Q239.93 29.59 240.58 29.61Q241.23 29.64 242.01 29.64L242.01 29.64Q243.20 29.64 244.17 29.59Q245.13 29.54 245.96 29.48ZM260.36 28.76L260.36 28.76Q263.69 28.76 266.34 30.21Q269.00 31.67 270.58 34.79Q272.17 37.91 272.17 42.90L272.17 42.90Q272.17 47.89 270.58 50.99Q269.00 54.08 266.34 55.54Q263.69 56.99 260.36 56.99L260.36 56.99Q257.09 56.99 254.41 55.54Q251.73 54.08 250.15 50.99Q248.56 47.89 248.56 42.90L248.56 42.90Q248.56 37.91 250.15 34.79Q251.73 31.67 254.41 30.21Q257.09 28.76 260.36 28.76ZM260.36 29.80L260.36 29.80Q257.40 29.80 255.50 32.86Q253.60 35.93 253.60 42.90L253.60 42.90Q253.60 49.87 255.50 52.91Q257.40 55.95 260.36 55.95L260.36 55.95Q263.33 55.95 265.23 52.91Q267.12 49.87 267.12 42.90L267.12 42.90Q267.12 35.93 265.23 32.86Q263.33 29.80 260.36 29.80ZM306.85 18.72L306.85 18.72Q310.28 18.72 312.49 19.73Q314.70 20.75 316.42 22.10L316.42 22.10Q317.46 22.88 318.01 22.28Q318.55 21.68 318.76 19.45L318.76 19.45L319.96 19.45Q319.85 21.37 319.80 24.13Q319.75 26.88 319.75 31.41L319.75 31.41L318.55 31.41Q318.19 29.17 317.88 27.85Q317.56 26.52 317.12 25.58Q316.68 24.65 315.95 23.71L315.95 23.71Q314.34 21.58 311.90 20.62Q309.45 19.66 306.75 19.66L306.75 19.66Q304.20 19.66 302.15 20.93Q300.09 22.20 298.61 24.60Q297.13 26.99 296.32 30.37Q295.52 33.75 295.52 37.96L295.52 37.96Q295.52 42.33 296.40 45.68Q297.28 49.04 298.87 51.32Q300.46 53.61 302.61 54.78Q304.77 55.95 307.27 55.95L307.27 55.95Q309.61 55.95 312.16 55.02Q314.70 54.08 316.16 52L316.16 52Q317.30 50.49 317.75 48.72Q318.19 46.96 318.55 43.78L318.55 43.78L319.75 43.78Q319.75 48.52 319.80 51.40Q319.85 54.29 319.96 56.26L319.96 56.26L318.76 56.26Q318.55 54.03 318.06 53.46Q317.56 52.88 316.42 53.61L316.42 53.61Q314.50 54.96 312.34 55.98Q310.18 56.99 306.80 56.99L306.80 56.99Q301.86 56.99 298.14 54.76Q294.42 52.52 292.37 48.31Q290.32 44.10 290.32 38.17L290.32 38.17Q290.32 32.34 292.45 27.98Q294.58 23.61 298.30 21.16Q302.02 18.72 306.85 18.72ZM337.58 28.76L337.58 28.76Q340.91 28.76 343.56 30.21Q346.22 31.67 347.80 34.79Q349.39 37.91 349.39 42.90L349.39 42.90Q349.39 47.89 347.80 50.99Q346.22 54.08 343.56 55.54Q340.91 56.99 337.58 56.99L337.58 56.99Q334.31 56.99 331.63 55.54Q328.95 54.08 327.37 50.99Q325.78 47.89 325.78 42.90L325.78 42.90Q325.78 37.91 327.37 34.79Q328.95 31.67 331.63 30.21Q334.31 28.76 337.58 28.76ZM337.58 29.80L337.58 29.80Q334.62 29.80 332.72 32.86Q330.82 35.93 330.82 42.90L330.82 42.90Q330.82 49.87 332.72 52.91Q334.62 55.95 337.58 55.95L337.58 55.95Q340.55 55.95 342.45 52.91Q344.34 49.87 344.34 42.90L344.34 42.90Q344.34 35.93 342.45 32.86Q340.55 29.80 337.58 29.80ZM369.51 28.76L369.51 28.76Q370.92 28.76 371.98 29.33Q373.05 29.90 373.65 30.81Q374.24 31.72 374.24 32.86L374.24 32.86Q374.24 34.16 373.44 35.15Q372.63 36.14 371.28 36.14L371.28 36.14Q370.19 36.14 369.36 35.44Q368.52 34.74 368.52 33.44L368.52 33.44Q368.52 32.45 369.07 31.75Q369.62 31.04 370.29 30.63L370.29 30.63Q369.93 30.11 369.20 30.11L369.20 30.11Q367.59 30.11 366.24 31.07Q364.88 32.03 363.95 33.54Q363.01 35.05 362.49 36.74Q361.97 38.43 361.97 39.88L361.97 39.88L361.97 50.91Q361.97 53.46 363.45 54.31Q364.94 55.17 367.48 55.17L367.48 55.17L367.48 56.26Q366.29 56.21 364.10 56.13Q361.92 56.06 359.48 56.06L359.48 56.06Q357.71 56.06 355.97 56.13Q354.22 56.21 353.34 56.26L353.34 56.26L353.34 55.17Q355.47 55.17 356.38 54.39Q357.29 53.61 357.29 51.43L357.29 51.43L357.29 35.15Q357.29 32.81 356.46 31.69Q355.63 30.58 353.34 30.58L353.34 30.58L353.34 29.48Q355.00 29.64 356.56 29.64L356.56 29.64Q358.07 29.64 359.45 29.46Q360.83 29.28 361.97 28.91L361.97 28.91L361.97 35.41Q362.54 33.90 363.61 32.37Q364.68 30.84 366.18 29.80Q367.69 28.76 369.51 28.76ZM384.75 28.91L384.75 28.91L384.75 60.84Q384.75 63.08 386.07 63.83Q387.40 64.58 389.74 64.58L389.74 64.58L389.74 65.68Q388.60 65.62 386.57 65.55Q384.54 65.47 382.25 65.47L382.25 65.47Q380.64 65.47 379.05 65.55Q377.47 65.62 376.64 65.68L376.64 65.68L376.64 64.58Q378.51 64.58 379.29 63.91Q380.07 63.23 380.07 61.36L380.07 61.36L380.07 35.15Q380.07 32.81 379.24 31.69Q378.40 30.58 376.12 30.58L376.12 30.58L376.12 29.48Q377.78 29.64 379.34 29.64L379.34 29.64Q380.85 29.64 382.23 29.46Q383.60 29.28 384.75 28.91ZM393.07 28.76L393.07 28.76Q395.82 28.76 398.01 30.24Q400.19 31.72 401.47 34.58Q402.74 37.44 402.74 41.65L402.74 41.65Q402.74 44.46 402.06 47.19Q401.39 49.92 399.96 52.13Q398.53 54.34 396.27 55.67Q394.00 56.99 390.83 56.99L390.83 56.99Q388.39 56.99 386.59 55.85Q384.80 54.70 384.18 53.09L384.18 53.09L384.70 52.36Q385.42 53.82 386.80 54.81Q388.18 55.80 390.26 55.80L390.26 55.80Q393.17 55.80 394.78 53.98Q396.40 52.16 397.05 49.11Q397.70 46.07 397.70 42.38L397.70 42.38Q397.70 38.22 397.02 35.57Q396.34 32.92 394.99 31.62Q393.64 30.32 391.66 30.32L391.66 30.32Q389.12 30.32 387.04 32.42Q384.96 34.53 384.38 38.79L384.38 38.79L383.76 38.06Q384.33 33.64 386.91 31.20Q389.48 28.76 393.07 28.76ZM411.74 50.34L411.74 50.34Q413.09 50.34 414.08 51.32Q415.06 52.31 415.06 53.66L415.06 53.66Q415.06 55.02 414.08 56.00Q413.09 56.99 411.74 56.99L411.74 56.99Q410.38 56.99 409.40 56.00Q408.41 55.02 408.41 53.66L408.41 53.66Q408.41 52.31 409.40 51.32Q410.38 50.34 411.74 50.34Z" transform="translate(0, 0)"></path></g></svg></svg></g></svg>